<?xml version="1.0" encoding="UTF-8"?>
<svg id="Layer_1" data-name="Layer 1" xmlns="http://www.w3.org/2000/svg" xmlns:xlink="http://www.w3.org/1999/xlink" viewBox="0 0 108.29 34.82">
  <defs>
    <style>
      .cls-1 {
        fill: url(#linear-gradient);
      }

      .cls-1, .cls-2, .cls-3, .cls-4, .cls-5 {
        stroke-width: 0px;
      }

      .cls-2 {
        fill: #6400df;
      }

      .cls-3 {
        fill: #0a0b3d;
      }

      .cls-4 {
        fill: #a951ff;
      }

      .cls-5 {
        fill: #005849;
      }
    </style>
    <linearGradient id="linear-gradient" x1="13.71" y1="2.58" x2="-7.01" y2="18.01" gradientUnits="userSpaceOnUse">
      <stop offset="0" stop-color="#005849"/>
      <stop offset="1" stop-color="#00d7b2"/>
    </linearGradient>
  </defs>
  <g>
    <path class="cls-3" d="m32.1,33.09h2.11c1.74,0,2.99-1.25,2.99-3.06s-1.24-3.06-2.99-3.06h-2.11v6.13Zm.98-.92v-4.28h1.1c1.3,0,2.01.86,2.01,2.14s-.71,2.14-2.01,2.14h-1.1Z"/>
    <path class="cls-3" d="m39.84,33.18c.82,0,1.39-.45,1.55-.8h.03v.72h.95v-4.49h-.95v.72h-.03c-.16-.35-.73-.8-1.55-.8-1.06,0-2.18.79-2.18,2.33s1.11,2.33,2.18,2.33Zm.18-.86c-.72,0-1.42-.5-1.42-1.47s.7-1.47,1.42-1.47,1.42.5,1.42,1.47-.7,1.47-1.42,1.47Z"/>
    <path class="cls-3" d="m45.44,29.37v-.77h-.91v-1.15h-.96v1.15h-.62v.77h.62v2.63c0,.8.48,1.14,1.17,1.14.24,0,.54-.04.7-.18v-.75c-.16.06-.31.08-.41.08-.35,0-.49-.2-.49-.46v-2.46h.91Z"/>
    <path class="cls-3" d="m48.08,28.52c-1.14,0-2.25.82-2.25,2.33s1.1,2.33,2.32,2.33c.76,0,1.41-.31,1.8-.79l-.45-.47c-.33.31-.76.47-1.24.47-.77,0-1.38-.4-1.53-1.17h3.52c.22-1.88-1.03-2.69-2.17-2.69Zm0,.81c.64,0,1.26.4,1.31,1.17h-2.68c.14-.79.74-1.17,1.37-1.17Z"/>
    <path class="cls-3" d="m14.66,33.13c1.04,0,2.18-.61,2.18-1.89,0-.85-.49-1.35-1.6-1.79l-.41-.16c-.64-.26-.79-.47-.79-.73,0-.35.28-.52.66-.52s.69.2.96.66l1.01-.57c-.29-.65-.94-1.3-2.02-1.3s-1.95.65-1.95,1.71c0,.99.75,1.44,1.57,1.77l.38.15c.59.23.79.41.79.77,0,.47-.37.67-.78.67-.58,0-.91-.4-1.08-.81l-1.1.51c.23.9,1.12,1.54,2.2,1.54Z"/>
    <path class="cls-3" d="m21.85,33.13c.79,0,1.26-.43,1.33-.6h.03v.51h1.34v-4.49h-1.34v.51h-.03c-.07-.16-.54-.6-1.33-.6-1.02,0-2.14.77-2.14,2.33s1.12,2.33,2.14,2.33Zm.28-1.19c-.57,0-1.1-.41-1.1-1.14s.53-1.14,1.1-1.14,1.11.41,1.11,1.14-.53,1.14-1.11,1.14Z"/>
    <path class="cls-3" d="m28.08,28.47c-.81,0-1.24.58-1.39,1.3v-1.22h-1.34v4.49h1.34v-1.85c0-.85.51-1.44,1.4-1.44.11,0,.21,0,.31.03v-1.27c-.11-.03-.22-.04-.32-.04Z"/>
    <path class="cls-3" d="m30.81,31.91c-.41,0-.54-.24-.54-.47v-1.7l1.16-1.17h-1.2v-1.31l-1.3,1.3v3.09c0,1.03.6,1.43,1.43,1.43.31,0,.69-.06.86-.23v-1.02c-.16.05-.32.07-.42.07Z"/>
    <path class="cls-3" d="m19.22,31.91c-.41,0-.54-.24-.54-.47v-1.7l1.16-1.17h-1.2v-1.31l-1.3,1.3v3.09c0,1.03.6,1.43,1.43,1.43.31,0,.69-.06.86-.23v-1.02c-.16.05-.32.07-.42.07Z"/>
    <g>
      <path class="cls-4" d="m51.99,26.91v1.58h-1.57l1.57-1.58Z"/>
      <path class="cls-2" d="m51.99,30.07v-1.58h1.57l-1.57,1.58Z"/>
    </g>
  </g>
  <path class="cls-5" d="m14,16.07c0-3.54,2.74-5.49,5.49-5.49s5.49,1.95,5.49,5.49-2.74,5.49-5.49,5.49-5.49-1.95-5.49-5.49Zm5.49,3.92c1.95,0,3.78-1.42,3.78-3.92s-1.83-3.92-3.78-3.92-3.78,1.42-3.78,3.92,1.83,3.92,3.78,3.92Z"/>
  <path class="cls-5" d="m34.43,12.85l-3.31,8.5h-1.58l-3.98-10.57h1.73l3.07,8.43,3.27-8.43h1.62l3.27,8.43,3.07-8.43h1.73l-3.98,10.57h-1.58l-3.31-8.5h0Z"/>
  <path class="cls-5" d="m43.88,16.07c0-3.56,2.6-5.49,5.27-5.49s5.49,1.93,5.06,6.12h-8.7c.26,2.22,1.95,3.39,3.98,3.39,1.24,0,2.38-.45,3.15-1.28l.85.87c-.96,1.18-2.48,1.87-4.19,1.87-2.84,0-5.43-1.97-5.43-5.49h0Zm8.82-.67c-.12-2.18-1.77-3.33-3.54-3.33s-3.39,1.12-3.66,3.33h7.19Z"/>
  <path class="cls-5" d="m56.16,10.78h1.71v2.62c.39-1.52,1.44-2.82,3.39-2.82.24,0,.45.02.61.08v1.6c-.18-.04-.34-.06-.59-.06-1.97,0-3.41,1.48-3.41,3.84v5.31h-1.71v-10.57Z"/>
  <path class="cls-5" d="m62.94,16.07c0-3.56,2.6-5.49,5.27-5.49s5.49,1.93,5.06,6.12h-8.7c.26,2.22,1.95,3.39,3.98,3.39,1.24,0,2.38-.45,3.15-1.28l.85.87c-.96,1.18-2.48,1.87-4.19,1.87-2.84,0-5.43-1.97-5.43-5.49h0Zm8.82-.67c-.12-2.18-1.77-3.33-3.54-3.33s-3.39,1.12-3.66,3.33h7.19Z"/>
  <path class="cls-5" d="m83.92,21.35v-1.99h-.06c-.51,1.12-1.99,2.2-3.96,2.2-2.56,0-5.18-1.87-5.18-5.49s2.62-5.49,5.18-5.49c1.97,0,3.46,1.08,3.96,2.2h.06v-5.85h1.71v14.43h-1.71Zm-3.74-1.36c1.91,0,3.8-1.32,3.8-3.92s-1.89-3.92-3.8-3.92-3.76,1.3-3.76,3.92,1.89,3.92,3.76,3.92Z"/>
  <path class="cls-5" d="m88.17,6.92h4.63c2.7,0,3.84,1.6,3.84,3.35,0,1.3-.63,2.58-2.3,3.11,1.99.43,3.09,1.95,3.09,3.92,0,2.32-1.5,4.04-4.84,4.04h-4.43V6.92Zm4.43,6.14c2.01,0,3.13-1.14,3.13-2.72s-.98-2.54-3.05-2.54h-3.56v5.27h3.48Zm-.04,7.42c2.62,0,3.94-1.18,3.94-3.19s-1.34-3.41-3.94-3.41h-3.44v6.61h3.44Z"/>
  <path class="cls-5" d="m102.89,21.25l-4.49-10.47h1l3.94,9.31,3.96-9.31h1l-4.53,10.57-1.71,3.86h-.94l1.77-3.96h0Z"/>
  <path class="cls-5" d="m4.86,0v9.38s-2.54-.14-4.86,2.54v-7.06c0-1.34.54-2.56,1.42-3.44.88-.88,2.1-1.42,3.44-1.42Z"/>
  <path class="cls-5" d="m4.86,13.91v2.78c0,2.68-2.18,4.86-4.86,4.86v-3.51s1.01-3.11,4.86-4.13h0Z"/>
  <path class="cls-1" d="m15.47,6.93c0,1.93-.78,3.68-2.05,4.94-1.27,1.27-3.01,2.05-4.94,2.05h-3.62c-3.86,1.02-4.86,4.13-4.86,4.13v-6.13c2.32-2.68,4.86-2.54,4.86-2.54h3.78c1.2,0,2.17-.97,2.17-2.17v-.13c0-1.16-.94-2.1-2.1-2.1h-3.85V0h3.69c3.82,0,6.93,3.1,6.93,6.93Z"/>
  <path class="cls-3" d="m.75,33v-6.18h.48v2.42c.36-.51.93-.83,1.56-.83,1.19,0,2,.93,2,2.35s-.81,2.34-2,2.34c-.67,0-1.24-.36-1.56-.83v.71h-.48Zm.48-1.12c.26.42.85.8,1.47.8,1,0,1.57-.83,1.57-1.91s-.57-1.92-1.57-1.92c-.62,0-1.21.39-1.47.81v2.21Z"/>
  <path class="cls-3" d="m6.29,34.31c.1.05.28.08.39.08.3,0,.5-.12.68-.55l.35-.8-1.89-4.51h.54l1.63,3.91,1.61-3.91h.55l-2.32,5.45c-.24.57-.62.83-1.15.83-.15,0-.35-.03-.47-.06l.08-.44Z"/>
</svg>